<svg width="18" height="18" viewBox="0 0 18 18" fill="none" xmlns="http://www.w3.org/2000/svg">
<g clip-path="url(#clip0_2369_1302)">
<path d="M17.25 9.75H0.75C0.335786 9.75 0 9.41421 0 9C0 8.58579 0.335786 8.25 0.75 8.25H17.25C17.6642 8.25 18 8.58579 18 9C18 9.41421 17.6642 9.75 17.25 9.75Z" fill="#0062FF"/>
<path d="M17.25 15H0.75C0.335786 15 0 14.6642 0 14.25C0 13.8358 0.335786 13.5 0.75 13.5H17.25C17.6642 13.5 18 13.8358 18 14.25C18 14.6642 17.6642 15 17.25 15Z" fill="#0062FF"/>
<path d="M17.25 4.5H0.75C0.335786 4.5 0 4.16421 0 3.75C0 3.33579 0.335786 3 0.75 3H17.25C17.6642 3 18 3.33579 18 3.75C18 4.16421 17.6642 4.5 17.25 4.5Z" fill="#0062FF"/>
</g>
<defs>
<clipPath id="clip0_2369_1302">
<rect width="18" height="18" fill="white" transform="matrix(1 0 0 -1 0 18)"/>
</clipPath>
</defs>
</svg>
