<svg width="18" height="18" viewBox="0 0 18 18" fill="none" xmlns="http://www.w3.org/2000/svg">
<g clip-path="url(#clip0_2377_1132)">
<path d="M14.7569 2.06845C13.8067 1.2777 12.7029 0.692326 11.5153 0.349229C10.3276 0.00613223 9.08172 -0.087254 7.85617 0.0749549C5.58896 0.369493 3.51883 1.51583 2.06611 3.28121C0.613385 5.04659 -0.11303 7.29867 0.0343604 9.58017C0.181751 11.8617 1.1919 14.0016 2.85969 15.5653C4.52749 17.1291 6.72791 17.9996 9.01417 18H14.2507C15.2449 17.9988 16.198 17.6033 16.901 16.9003C17.604 16.1973 17.9995 15.2442 18.0007 14.25V8.48171V8.43446C17.9213 7.20854 17.5927 6.01169 17.035 4.91712C16.4772 3.82254 15.7021 2.85322 14.7569 2.06845ZM6.00067 5.24996H9.00067C9.19958 5.24996 9.39035 5.32897 9.531 5.46962C9.67165 5.61028 9.75067 5.80104 9.75067 5.99996C9.75067 6.19887 9.67165 6.38963 9.531 6.53029C9.39035 6.67094 9.19958 6.74996 9.00067 6.74996H6.00067C5.80176 6.74996 5.61099 6.67094 5.47034 6.53029C5.32969 6.38963 5.25067 6.19887 5.25067 5.99996C5.25067 5.80104 5.32969 5.61028 5.47034 5.46962C5.61099 5.32897 5.80176 5.24996 6.00067 5.24996ZM12.0007 12.75H6.00067C5.80176 12.75 5.61099 12.6709 5.47034 12.5303C5.32969 12.3896 5.25067 12.1989 5.25067 12C5.25067 11.801 5.32969 11.6103 5.47034 11.4696C5.61099 11.329 5.80176 11.25 6.00067 11.25H12.0007C12.1996 11.25 12.3903 11.329 12.531 11.4696C12.6717 11.6103 12.7507 11.801 12.7507 12C12.7507 12.1989 12.6717 12.3896 12.531 12.5303C12.3903 12.6709 12.1996 12.75 12.0007 12.75ZM12.0007 9.74996H6.00067C5.80176 9.74996 5.61099 9.67094 5.47034 9.53029C5.32969 9.38963 5.25067 9.19887 5.25067 8.99996C5.25067 8.80104 5.32969 8.61028 5.47034 8.46963C5.61099 8.32897 5.80176 8.24996 6.00067 8.24996H12.0007C12.1996 8.24996 12.3903 8.32897 12.531 8.46963C12.6717 8.61028 12.7507 8.80104 12.7507 8.99996C12.7507 9.19887 12.6717 9.38963 12.531 9.53029C12.3903 9.67094 12.1996 9.74996 12.0007 9.74996Z" fill="#A3A5B4"/>
</g>
<defs>
<clipPath id="clip0_2377_1132">
<rect width="18" height="18" fill="white"/>
</clipPath>
</defs>
</svg>
