<svg width="18" height="18" viewBox="0 0 18 18" fill="none" xmlns="http://www.w3.org/2000/svg">
<g clip-path="url(#clip0_2377_1146)">
<path d="M14.0362 9.00011H10.5014C9.67302 9.00011 9.00143 8.32852 9.00143 7.5001V3.95561C9.0035 3.25635 8.68031 2.59583 8.12692 2.16837C7.60253 1.7531 6.91494 1.6051 6.26617 1.76787C1.85652 2.86249 -0.830859 7.32463 0.263801 11.7343C1.03502 14.8411 3.53843 17.2185 6.68094 17.8284C10.9739 18.6501 15.1626 15.981 16.2315 11.7429C16.3948 11.0932 16.2471 10.4046 15.8317 9.87912C15.3993 9.32671 14.7377 9.00278 14.0362 9.00011Z" fill="white"/>
<path d="M17.7398 5.5846C17.5686 4.9482 17.3136 4.33736 16.9815 3.76811C15.9827 2.05466 14.3512 0.801801 12.438 0.279098C12.312 0.245102 12.03 0.225098 12.03 0.225098C11.9293 0.225133 11.4953 0.225098 11.1518 0.503359C10.6469 0.90066 10.5675 1.35235 10.56 1.38761C10.5338 1.49821 10.5202 1.61145 10.5195 1.72511V5.25012C10.5195 6.49275 11.5269 7.50012 12.7695 7.50012H16.3088C16.7783 7.50146 17.2203 7.27853 17.4983 6.90011C17.7039 6.6229 17.8096 6.28428 17.7983 5.93936C17.7923 5.81927 17.7727 5.70023 17.7398 5.5846Z" fill="white"/>
</g>
<defs>
<clipPath id="clip0_2377_1146">
<rect width="18" height="18" fill="white"/>
</clipPath>
</defs>
</svg>
