<svg width="18" height="18" viewBox="0 0 18 18" fill="none" xmlns="http://www.w3.org/2000/svg">
<g clip-path="url(#clip0_2377_1152)">
<path d="M15 7.875C14.4944 7.89234 13.9919 7.96069 13.5 8.079V6.75C13.5 6.15326 13.2629 5.58097 12.841 5.15901C12.419 4.73705 11.8467 4.5 11.25 4.5H9.546C9.66478 4.00823 9.73313 3.50563 9.75 3C9.75 2.20435 9.43393 1.44129 8.87132 0.87868C8.30871 0.316071 7.54565 0 6.75 0C5.95435 0 5.19129 0.316071 4.62868 0.87868C4.06607 1.44129 3.75 2.20435 3.75 3C3.76687 3.50563 3.83522 4.00823 3.954 4.5H2.25C1.65326 4.5 1.08097 4.73705 0.65901 5.15901C0.237053 5.58097 0 6.15326 0 6.75L0 18H4.902L4.725 17.25C4.59847 16.7591 4.52307 16.2564 4.5 15.75C4.5 15.1533 4.73705 14.581 5.15901 14.159C5.58097 13.7371 6.15326 13.5 6.75 13.5C7.34674 13.5 7.91903 13.7371 8.34099 14.159C8.76295 14.581 9 15.1533 9 15.75C8.97693 16.2564 8.90153 16.7591 8.775 17.25L8.59725 18H13.5V13.671C13.9919 13.7893 14.4944 13.8577 15 13.875C15.7956 13.875 16.5587 13.5589 17.1213 12.9963C17.6839 12.4337 18 11.6706 18 10.875C18 10.0794 17.6839 9.31629 17.1213 8.75368C16.5587 8.19107 15.7956 7.875 15 7.875Z" fill="#A3A5B4"/>
</g>
<defs>
<clipPath id="clip0_2377_1152">
<rect width="18" height="18" fill="white"/>
</clipPath>
</defs>
</svg>
