<svg width="36" height="35" viewBox="0 0 36 35" fill="none" xmlns="http://www.w3.org/2000/svg">
<path d="M15.1149 0.126751C12.1705 0.52788 9.26019 1.7398 6.81928 3.58328C5.91461 4.26605 4.2845 5.89617 3.60172 6.80084C0.503652 10.906 -0.657058 15.9926 0.358563 21.0195C0.588998 22.1376 1.01573 23.4604 1.15228 23.4604C1.27177 23.4604 3.75535 22.5643 3.81509 22.496C3.84069 22.4704 3.76388 22.129 3.63586 21.7279C2.91042 19.3297 2.808 16.6583 3.35422 14.2857C3.77242 12.4678 4.62588 10.5731 5.70978 9.03691C6.44376 8.00422 8.02267 6.42531 9.05536 5.69133C12.7679 3.06267 17.4193 2.30308 21.7464 3.61742C22.1475 3.74544 22.4889 3.82225 22.5145 3.79664C22.5828 3.7369 23.4789 1.25332 23.4789 1.13384C23.4789 0.903402 21.1148 0.280375 19.4676 0.0755424C18.4776 -0.0439415 16.1988 -0.0183372 15.1149 0.126751Z" fill="#0062FF"/>
<path d="M28.0098 1.57781C24.7581 2.44835 23.6571 6.57057 26.0383 8.95174C27.7452 10.6587 30.5446 10.6587 32.2686 8.95174C33.967 7.26188 33.9755 4.41131 32.2771 2.71292C31.2017 1.64609 29.4777 1.18522 28.0098 1.57781Z" fill="#0062FF"/>
<path d="M16.0042 5.87931C13.973 6.16949 12.0612 6.94614 10.4652 8.14952C9.75684 8.67867 8.6132 9.82231 8.11819 10.488C5.50659 14.0128 5.08839 18.7751 7.05136 22.6925C7.22205 23.0425 7.37568 23.3412 7.39275 23.3582C7.40982 23.3753 9.90193 21.9586 9.97874 21.8818C9.99581 21.8647 9.87633 21.5916 9.71417 21.2758C9.07407 19.9956 8.84363 18.9373 8.85217 17.3584C8.8607 16.0526 8.98872 15.4296 9.48373 14.1835C9.919 13.0996 10.4567 12.323 11.4467 11.3415C12.6757 10.1125 13.7767 9.498 15.5263 9.02006C16.0298 8.8835 16.4565 8.84083 17.3783 8.83229C18.9572 8.82376 20.0155 9.05419 21.2957 9.69429C21.6114 9.85645 21.8846 9.97594 21.9016 9.95887C21.9784 9.88205 23.3952 7.38994 23.3781 7.37287C23.361 7.3558 23.0623 7.20218 22.7124 7.03149C21.0908 6.2207 19.7338 5.88785 17.8477 5.83664C17.1222 5.81957 16.2944 5.83664 16.0042 5.87931Z" fill="#0062FF"/>
<path d="M32.4536 11.9899C31.7793 12.2374 31.2075 12.4678 31.1904 12.4849C31.1734 12.5019 31.2502 12.8433 31.3782 13.2444C31.7452 14.4649 31.9329 15.5829 31.9927 16.8887C32.2316 22.6155 29.0909 27.907 23.9445 30.4844C20.6843 32.1145 16.8096 32.4303 13.2677 31.3549C12.8666 31.2269 12.5252 31.1501 12.4996 31.1757C12.4313 31.2355 11.5352 33.719 11.5352 33.8385C11.5352 34.069 13.8993 34.692 15.5464 34.8968C16.5877 35.0248 18.6274 34.9992 19.7881 34.8541C27.6486 33.83 33.8532 27.6253 34.8774 19.7649C35.0225 18.6042 35.0481 16.5644 34.9201 15.5232C34.6896 13.7053 34.0922 11.5034 33.8276 11.5205C33.7508 11.529 33.1278 11.7338 32.4536 11.9899Z" fill="#0062FF"/>
<path d="M16.4329 11.7252C13.369 12.2885 11.2609 15.1817 11.6877 18.2201C11.884 19.6197 12.3875 20.6524 13.3605 21.6254C14.3334 22.5983 15.3661 23.1019 16.7658 23.2982C18.0204 23.4774 19.403 23.1872 20.5466 22.513C21.1782 22.1375 22.1511 21.1645 22.5267 20.5329C24.1226 17.8275 23.3631 14.3539 20.7856 12.6299C19.4627 11.7508 17.9692 11.435 16.4329 11.7252Z" fill="#0062FF"/>
<path d="M26.3808 12.2884C25.7493 12.6639 25.1774 13.0053 25.1177 13.0394C25.0238 13.0906 25.0579 13.2186 25.2713 13.6539C26.9697 17.008 26.2528 21.0961 23.5046 23.7162C22.7536 24.4417 22.2074 24.8343 21.3795 25.2439C18.9045 26.4729 16.0966 26.4815 13.6727 25.261C13.3826 25.1074 13.1265 24.9964 13.1095 25.0135C13.0326 25.0903 11.6159 27.5824 11.633 27.5995C11.7525 27.7019 13.1521 28.3506 13.6301 28.5212C14.9017 28.9821 15.8832 29.1357 17.5048 29.1357C19.1264 29.1272 19.7835 29.0333 21.2174 28.5725C22.9243 28.0262 24.3069 27.1642 25.7407 25.7219C27.1831 24.2881 27.9853 23.0079 28.5913 21.1815C29.0436 19.8245 29.1546 19.1246 29.1546 17.486C29.146 15.9412 29.0607 15.267 28.6681 13.9868C28.4889 13.3893 27.6695 11.5885 27.5842 11.6056C27.5586 11.6056 27.0124 11.9214 26.3808 12.2884Z" fill="#0062FF"/>
<path d="M4.70873 24.8771C2.78843 25.3892 1.45703 27.1388 1.45703 29.1359C1.45703 31.5939 3.39439 33.5312 5.85237 33.5312C9.7527 33.5312 11.7242 28.7775 8.96751 26.0208C7.88361 24.9369 6.18522 24.476 4.70873 24.8771Z" fill="#0062FF"/>
<path d="M3.31787 28.9951C3.31787 28.1771 3.54574 27.5402 4.00146 27.0845C4.45719 26.6287 5.0918 26.4009 5.90527 26.4009C6.73926 26.4009 7.38184 26.6253 7.83301 27.0742C8.28418 27.5208 8.50977 28.1475 8.50977 28.9541C8.50977 29.5397 8.41064 30.0205 8.2124 30.3965C8.01644 30.7702 7.73161 31.0618 7.35791 31.2715C6.98649 31.4788 6.52279 31.5825 5.9668 31.5825C5.40169 31.5825 4.93343 31.4925 4.56201 31.3125C4.19287 31.1325 3.89323 30.8477 3.66309 30.458C3.43294 30.0684 3.31787 29.5807 3.31787 28.9951ZM4.86621 29.002C4.86621 29.5078 4.95964 29.8713 5.14648 30.0923C5.33561 30.3133 5.59196 30.4238 5.91553 30.4238C6.24821 30.4238 6.5057 30.3156 6.68799 30.0991C6.87028 29.8826 6.96143 29.4941 6.96143 28.9336C6.96143 28.4619 6.86572 28.1178 6.67432 27.9014C6.48519 27.6826 6.2277 27.5732 5.90186 27.5732C5.58968 27.5732 5.33903 27.6838 5.1499 27.9048C4.96077 28.1258 4.86621 28.4915 4.86621 29.002Z" fill="white"/>
<path d="M15.5059 14.9863H18.0796C18.6401 14.9863 19.0594 15.1196 19.3374 15.3862C19.6177 15.6528 19.7578 16.0322 19.7578 16.5244C19.7578 17.0303 19.6051 17.4256 19.2998 17.7104C18.9967 17.9953 18.533 18.1377 17.9087 18.1377H17.061V19.9971H15.5059V14.9863ZM17.061 17.1226H17.4404C17.7389 17.1226 17.9486 17.0713 18.0693 16.9688C18.1901 16.8639 18.2505 16.7306 18.2505 16.5688C18.2505 16.4116 18.1981 16.2783 18.0933 16.1689C17.9884 16.0596 17.7913 16.0049 17.502 16.0049H17.061V17.1226Z" fill="white"/>
<path d="M26.7427 6.83936L28.2158 6.74707C28.2477 6.98633 28.3127 7.16862 28.4106 7.29395C28.5701 7.49674 28.798 7.59814 29.0942 7.59814C29.3153 7.59814 29.485 7.54688 29.6035 7.44434C29.7243 7.33952 29.7847 7.21875 29.7847 7.08203C29.7847 6.95215 29.7277 6.83594 29.6138 6.7334C29.4998 6.63086 29.2355 6.53402 28.8208 6.44287C28.1418 6.2902 27.6576 6.0874 27.3682 5.83447C27.0765 5.58154 26.9307 5.25911 26.9307 4.86719C26.9307 4.6097 27.0047 4.36702 27.1528 4.13916C27.3032 3.90902 27.5277 3.729 27.8262 3.59912C28.127 3.46696 28.5382 3.40088 29.0601 3.40088C29.7004 3.40088 30.188 3.52051 30.5229 3.75977C30.8602 3.99674 31.0607 4.375 31.1245 4.89453L29.665 4.97998C29.6263 4.75439 29.5443 4.59033 29.4189 4.48779C29.2959 4.38525 29.125 4.33398 28.9062 4.33398C28.7262 4.33398 28.5907 4.37272 28.4995 4.4502C28.4084 4.52539 28.3628 4.61768 28.3628 4.72705C28.3628 4.8068 28.4004 4.87858 28.4756 4.94238C28.5485 5.00846 28.7217 5.06999 28.9951 5.12695C29.6719 5.27279 30.1561 5.4209 30.4478 5.57129C30.7417 5.7194 30.9548 5.90397 31.0869 6.125C31.2214 6.34603 31.2886 6.59326 31.2886 6.8667C31.2886 7.18799 31.1997 7.48421 31.022 7.75537C30.8442 8.02653 30.5959 8.23275 30.2769 8.37402C29.9578 8.51302 29.5557 8.58252 29.0703 8.58252C28.2181 8.58252 27.6279 8.41846 27.2998 8.09033C26.9717 7.76221 26.786 7.34521 26.7427 6.83936Z" fill="white"/>
</svg>
